<svg version="1.2" xmlns="http://www.w3.org/2000/svg" viewBox="0 0 100 125" width="100" height="125"><style></style><path  d="m74.9 77.6l20.1-11.2-14.2-0.8 8.1-7.3-18.1 1.4c0 0-0.4-2.9-4.1-6.6-2.3-2.2-7.4-3.7-7.4-3.7 0 0 0.7-9.3-4.4-17.5-3.3-4.3-10-5.4-16.8-7.3 5.2 14.8 3.3 20.6 3.3 20.6 0 0-7.4-8.3-15.8-9.6-4.9-0.3-15.1 5.1-20.6 8.7 19.4 10.1 21.5 20.2 21.5 20.2-7.1 0.7-19.7 8.1-19.7 8.1 15.5 3 20.6 6.7 20.6 6.7l-8.5 4.9 17.3 1.8c-1-0.8-3.2-3.4-3.7-4.9-0.4-1.6-0.2-6.7 1.3-7 0.9-0.2 1.5 0.2 1.8 0.7q0-0.5 0-1.1c0-7.6 7.3-13 14.8-13 8 0 17.4 2.8 16.6 11 0.4-0.5-0.8 2.2 0 2.4 1.6 0.3 1.8 5.4 1.3 7-0.5 1.6-2.9 4.4-3.8 5-0.4 0.2-0.8 0.3-1 0.3q-0.2 0.8-0.4 1.4l11.8-0.4-5.5-2.6 15.4-4.5z"/><path fill-rule="evenodd" d="m50.7 97.6q-0.2 0-0.3 0-0.1 0-0.3 0c-0.9 0-2.5-0.1-3.7-0.7-3.9-2.2-8.5-7.2-9-8.1q-0.3-0.6-0.6-1.8-0.4-0.1-0.8-0.3c-1.1-0.7-3.6-3.7-4.1-5.4-0.4-1.4-0.5-5.3 0.6-7q0.5-0.8 1.2-0.9 0.6-0.1 1.2 0c0-3.6 1.8-7 4.8-9.6 2.9-2.4 6.8-3.8 10.7-3.8 6.7 0 12.3 1.9 15.1 4.9 1.6 1.8 2.4 4 2.2 6.5 0.1 0.2 0.1 0.4 0 0.8q-0.3 0.9-0.3 1.3 0.6 0.2 1 0.8c1 1.7 1 5.6 0.6 7-0.5 1.7-3.1 4.7-4.1 5.4q-0.4 0.2-0.8 0.3-0.3 1.2-0.6 1.8c-0.5 0.9-5.2 5.9-9 8.1-1.2 0.6-2.9 0.7-3.8 0.7zm-0.3-1.4h0.1q0 0 0.2 0c0.5 0 2.1 0 3.1-0.6 3.7-2 8.1-6.8 8.4-7.5 0.2-0.2 0.4-0.8 0.6-1.9l0.2-0.6 0.6 0.1c0.1 0 0.2-0.1 0.5-0.2 0.8-0.5 3.1-3.2 3.5-4.6 0.4-1.2 0.3-4.6-0.5-5.8q-0.1-0.3-0.2-0.3-0.5-0.1-0.7-0.5 0 0 0-0.1l-0.1 0.2v-0.3c-0.2-0.6 0-1.4 0.2-2.2v-0.3q0.3-3.4-1.8-5.7c-2.6-2.8-7.8-4.4-14.1-4.4-3.5 0-7.1 1.2-9.8 3.4-2.8 2.4-4.3 5.5-4.3 8.8q0 0.5 0 1l0.3 2.8-1.6-2.3q-0.4-0.6-1-0.4-0.1 0-0.3 0.3c-0.7 1.2-0.8 4.6-0.5 5.8 0.4 1.4 2.8 4.1 3.5 4.6 0.3 0.2 0.5 0.2 0.6 0.2l0.6-0.1 0.1 0.6c0.3 1.1 0.5 1.7 0.6 1.9 0.4 0.7 4.8 5.5 8.5 7.5 1 0.6 2.6 0.6 3 0.6q0.3 0 0.3 0z"/><path  d="m33 73.9l4.1 4.7-0.5-3.7 3.4 3.1c0 0-0.7-4.3 0.1-6.7 1.1-2.3 3.9-3.6 3.9-3.6 0 0-0.3 8.4 0.4 11.9 2.2-4.3 9-12.4 12.7-13.8 1 4.4-0.5 11.2-1.1 14.5 3.3-3.5 7.5-10.2 7.7-11.7 0 0 0.5 0.3 0.7 0.8 0.4 0.9-1 5.9-1.7 7.9 1-0.6 2.9-2.1 2.9-2.1l-1.7 3.8c0 0 4.7-3.1 5.2-3.9 1-1.5 3-12.5 3-12.5l-30.1-6.7-11.2 8.4z"/></svg>