<svg xmlns="http://www.w3.org/2000/svg" version="1.2" viewBox="0 0 100 125" width="100" height="125"><style/><path fill-rule="evenodd" d="m48.6 101.7q-0.2 0-0.3 0-0.1 0-0.3 0c-0.9 0-2.5-0.1-3.7-0.8-3.9-2.1-8.6-7.2-9-8.1q-0.4-0.6-0.6-1.7-0.4-0.1-0.8-0.4c-1.1-0.6-3.6-3.6-4.1-5.4-0.4-1.3-0.5-5.2 0.6-6.9q0.4-0.6 0.9-0.9c0.1-0.8-0.2-3.3-0.4-4.4-0.1-1.4-0.2-1.9-0.1-2.2q0-0.4 0-0.9c0-3.8 2.2-9 5.7-13.5 3.8-4.8 8.1-7.6 11.8-7.6 3.4 0 7.6 2.4 11.4 6.6 4 4.4 7.8 11 7.5 16.2 0 0.2-0.1 0.4-0.2 0.7q-0.1 0.3-0.2 0.8c-0.3 0.9-1.3 3.5-1.3 4.4q0.4 0.2 0.8 0.8c1 1.7 1 5.6 0.6 6.9-0.5 1.8-3.1 4.8-4.1 5.4q-0.4 0.3-0.8 0.4-0.3 1.1-0.6 1.7c-0.5 0.9-5.2 6-9 8.1-1.2 0.7-2.9 0.8-3.8 0.8zm-0.3-1.4h0.1q0 0 0.2 0c0.5 0 2.1-0.1 3.1-0.6 3.7-2.1 8.1-6.9 8.4-7.5 0.2-0.3 0.4-0.8 0.6-1.9l0.2-0.6h0.6c0 0 0.2 0 0.5-0.2 0.8-0.4 3.1-3.2 3.5-4.6 0.4-1.2 0.3-4.6-0.5-5.8q-0.1-0.3-0.2-0.3-0.4-0.1-0.6-0.4c-0.4-0.7-0.1-1.9 1.2-5.7 0.1-0.3 0.3-0.6 0.3-0.8v-0.1c0.4-4.1-2.5-10.4-7-15.3-3.6-3.9-7.4-6.2-10.4-6.2-3.2 0-7.2 2.7-10.7 7.1-3.3 4.2-5.4 9.2-5.4 12.6q0 0.5 0 1l0.3 2.8c0.1 0.8 0.2 1.7 0.2 2.4 0.1 1.3 0.1 2.4-0.8 2.6q-0.1 0-0.3 0.3c-0.7 1.2-0.8 4.6-0.5 5.8 0.4 1.4 2.8 4.2 3.5 4.6 0.3 0.2 0.5 0.2 0.6 0.2h0.6l0.1 0.6c0.3 1.1 0.5 1.6 0.6 1.9 0.4 0.6 4.8 5.4 8.5 7.5 1 0.5 2.6 0.6 3 0.6q0.3 0 0.3 0z" fill="#ffffff"/><path d="m65.2 86.6l8.7-7.9c0 0-2.1 0.4-4.5 0.2 4.6-4.4 9.2-18 9.2-18 0 0-4.7 2.8-7.1 3.4 2.4-5.4 2.5-13.9 2.5-13.9 0 0-3.1 3.3-6.3 5.5 1.3-2.7 1.8-12.4 1-15.3 0 0-2.5 3.3-4.1 3.7 0.1-2.5-4.1-13.1-4.1-13.1 0 0-1.4 8.3-3.3 9.6 0-8-6.7-18.8-6.7-18.8 0 0-1 7.6-2.8 10.4-2.4 3.7-6.6 7.8-6.6 7.8 0 0-0.5-4.2 0.1-8.6-9.9 12.9-9.6 16.6-9.6 16.6 0 0-2.4-4.3-4.8-8.7-1.7 5.6-2 20.9-2 20.9 0 0-1.4-1.4-3.8-3.9-0.1 14.5 2.9 20.5 5.2 21.8 0 0-1.8-0.2-4.4-0.9-0.1 1.5 8.9 8.8 8.9 8.8 0 0-1.5-4.8 0-6.5 0.8-0.9 3.3 2.8 3.3 2.8 0 0-0.1-3.5 1.3-4.4l-2.2 0.4c0 0 1-15.2 7.3-15.1 3.3 0 3.9 4.5 7.3 12.4 3.9-7.1 5.2-12.9 9.1-12.6 5 0.3 6.6 10.9 6.1 13.6-0.1 0.5-1.8 0-1.8 0 0 0 1.5 2.3 1.6 3.7 0 0.3 2.3-2.2 3.2-1.7 1 0.6 0.7 5-0.7 7.8z" fill="#ffffff"/></svg>