<svg version="1.2" xmlns="http://www.w3.org/2000/svg" viewBox="0 0 100 125" width="100" height="125"><style>.a{fill:#ffa500}</style><path fill-rule="evenodd" class="a" d="m100 62c0 27.6-22.4 50-50 50-27.6 0-50-22.4-50-50 0-27.6 22.4-50 50-50 27.6 0 50 22.4 50 50zm-60.7 44c-18.2-5.6-31.3-22.5-31.3-42.5 0-24.6 19.9-44.5 44.5-44.5 12.2 0 23.2 4.9 31.2 12.8-8.3-9.3-20.3-15.1-33.7-15.1-25 0-45.3 20.3-45.3 45.3 0 21.3 14.8 39.2 34.6 44zm-18.1-62.9c-0.2 0.3-0.1 0.7 0.2 1 0.4 0.2 0.9 0.2 1.2-0.2 2-2.6 3.9-5.2 6.1-7.4 2.2-2.3 4.7-4.4 7.4-6 2.8-1.6 5.7-2.9 8.8-3.8 3.1-0.9 6.3-1.4 9.6-1.6 0.3-0.1 0.5-0.3 0.5-0.6 0-0.3-0.2-0.5-0.5-0.6-3.4-0.2-6.8 0-10.1 0.7-3.3 0.7-6.6 1.9-9.6 3.5-3 1.7-5.8 3.8-8.2 6.4-2.3 2.5-4.2 5.4-5.4 8.6zm22.4 0.5l-6.8 3.6 7.1 3.1 1.3 7.6 5.1-5.8 7.6 1.1-3.9-6.6 3.4-6.9-7.5 1.6-5.5-5.4zm-10.1 22.1l-6.9 3.6 7.1 3.1 1.3 7.5 5.1-5.7 7.6 1.1-3.9-6.6 3.4-6.9-7.5 1.6-5.5-5.4zm30.7-11.2l-6.8 3.5 7 3.1 1.3 7.6 5.1-5.8 7.6 1.2-3.9-6.7 3.5-6.9-7.6 1.7-5.5-5.4zm-10.6 23.5l-6.8 3.6 7 3.1 1.3 7.6 5.1-5.8 7.7 1.1-3.9-6.6 3.4-6.9-7.5 1.6-5.5-5.3z"/></svg>