<?xml version="1.0" standalone="no"?>
<!DOCTYPE svg PUBLIC "-//W3C//DTD SVG 20010904//EN"
 "http://www.w3.org/TR/2001/REC-SVG-20010904/DTD/svg10.dtd">
<svg version="1.0" xmlns="http://www.w3.org/2000/svg"
 width="488.000000pt" height="752.000000pt" viewBox="0 0 488.000000 752.000000"
 preserveAspectRatio="xMidYMid meet">

<g transform="translate(0.000000,752.000000) scale(0.100000,-0.100000)"
fill="#000000" stroke="none">
<path d="M2297 7382 c88 -112 175 -300 233 -503 48 -170 51 -171 46 -19 -7
263 -81 399 -305 564 -8 6 4 -13 26 -42z"/>
<path d="M1762 7288 c42 -47 97 -117 122 -155 43 -64 120 -223 112 -231 -2 -1
-32 17 -67 41 -132 92 -269 144 -399 152 l-75 5 64 -15 c139 -32 279 -91 396
-167 87 -57 110 -82 126 -136 15 -52 9 -60 -28 -34 -44 31 -104 59 -176 82
l-67 22 -106 -31 c-152 -45 -274 -112 -352 -193 l-33 -35 98 -7 c186 -12 303
-57 411 -159 62 -59 68 -78 13 -41 -43 28 -194 84 -226 84 -11 -1 12 -13 50
-29 80 -32 195 -93 195 -103 0 -4 -6 -5 -14 -2 -48 18 -266 -75 -351 -151
l-50 -44 47 -1 c61 0 181 -24 238 -46 25 -10 72 -35 104 -57 l59 -40 -49 -13
c-27 -7 -74 -22 -104 -32 -63 -22 -63 -23 82 -41 48 -6 117 -21 154 -32 36
-11 68 -19 70 -17 2 2 -3 25 -11 51 -30 101 -34 144 -14 174 11 15 19 37 19
48 0 13 7 7 21 -20 12 -22 31 -56 43 -75 11 -19 28 -53 36 -75 11 -28 22 -41
38 -43 14 -2 22 2 22 10 0 8 6 22 13 32 12 16 16 14 63 -21 99 -74 154 -122
145 -127 -10 -7 -150 28 -180 44 -11 5 -22 10 -24 10 -2 0 8 -39 24 -86 25
-78 50 -128 97 -194 12 -17 -2 -10 -46 24 -35 26 -65 47 -67 45 -1 -2 3 -47
11 -99 7 -52 13 -115 14 -139 0 -36 -2 -41 -14 -32 -8 6 -24 40 -36 74 -23 63
-40 92 -40 69 0 -11 -104 -85 -133 -95 -8 -2 34 -88 58 -115 1 -1 41 5 89 14
74 15 96 15 156 5 69 -13 129 -43 138 -70 4 -11 0 -12 -14 -6 -56 24 -324 13
-324 -14 0 -3 25 -31 55 -61 30 -29 53 -56 51 -58 -11 -10 -109 53 -147 96
-38 42 -154 232 -174 285 -4 9 -10 17 -15 17 -10 0 -40 -97 -47 -153 l-6 -47
-58 55 c-31 30 -61 55 -65 55 -4 0 -4 -48 -1 -106 l7 -106 -46 89 c-26 48 -48
89 -49 91 -1 1 -25 -13 -53 -32 -46 -31 -148 -76 -172 -76 -29 0 -11 -53 124
-354 42 -93 74 -171 72 -173 -3 -4 -94 102 -130 152 l-15 20 -7 -20 c-4 -11
-20 -38 -34 -60 -51 -76 -82 -149 -96 -226 -15 -86 -12 -105 35 -196 17 -34
31 -65 31 -68 0 -4 -18 9 -41 29 -64 55 -105 70 -197 74 l-83 4 6 -53 6 -54
-33 60 c-37 67 -88 138 -95 131 -3 -2 0 -13 5 -23 5 -10 12 -31 16 -46 6 -25
4 -28 -12 -22 -15 4 -21 0 -25 -17 -4 -13 -13 -32 -22 -43 -15 -19 -15 -18 -9
16 3 21 -1 64 -11 104 -14 55 -15 71 -5 90 7 13 10 35 6 49 -8 34 -39 34 -89
1 -47 -33 -48 -17 -1 35 l37 41 -23 24 c-14 15 -28 21 -34 16 -6 -4 -36 -22
-67 -39 l-56 -32 5 25 c4 24 26 50 66 78 17 13 16 15 -18 35 l-37 22 -56 -45
c-32 -24 -59 -42 -62 -40 -6 6 50 85 60 85 20 0 7 31 -17 42 -26 12 -30 9
-122 -87 l-94 -99 7 -61 c4 -33 8 -76 9 -96 2 -31 18 -51 137 -168 137 -136
157 -150 212 -152 l32 -2 -37 -10 c-21 -6 -38 -13 -38 -17 0 -3 13 -13 29 -23
16 -9 62 -44 102 -77 81 -65 75 -65 154 -4 34 25 46 31 40 18 -15 -39 -9 -49
40 -74 48 -24 56 -25 210 -22 126 3 162 7 168 18 4 8 49 66 98 130 97 123 148
220 176 332 9 37 17 69 19 70 1 2 23 -8 48 -23 54 -31 53 -34 -22 -146 l-50
-74 77 -42 c42 -23 83 -43 92 -43 9 0 24 11 33 25 9 14 22 25 29 25 6 0 52
-15 100 -34 91 -34 95 -46 18 -46 -42 0 -131 -27 -131 -40 0 -9 178 -70 206
-70 40 0 -6 -18 -99 -40 -54 -12 -100 -27 -102 -33 -1 -7 -30 -97 -64 -202
-67 -209 -96 -317 -135 -505 -27 -134 -85 -522 -87 -580 -1 -33 -1 -33 -9 -10
-14 40 -49 295 -56 414 l-7 109 -34 -119 c-83 -295 -124 -450 -158 -598 -20
-88 -47 -196 -59 -240 -15 -52 -21 -99 -19 -131 2 -27 0 -75 -4 -105 l-8 -55
-29 113 c-29 120 -35 239 -17 352 5 30 8 56 6 58 -3 3 -145 -254 -165 -298 -9
-20 -4 -66 23 -230 19 -113 34 -206 32 -208 -1 -1 -15 31 -31 73 -16 41 -32
75 -36 75 -5 0 -8 -18 -8 -39 0 -22 -5 -43 -10 -46 -6 -4 -10 18 -11 57 0 35
-6 97 -13 138 l-12 75 -23 -50 c-13 -27 -46 -102 -73 -165 -27 -63 -61 -138
-75 -165 l-24 -51 55 -144 c31 -80 65 -152 75 -160 40 -32 201 -173 201 -176
0 -1 -24 8 -54 21 l-53 24 -33 -82 c-70 -179 -140 -368 -140 -382 0 -20 137
-87 235 -115 52 -15 108 -23 160 -24 99 0 136 16 55 24 -58 6 -56 9 24 31 l48
14 79 174 c44 95 78 176 75 178 -2 3 -35 12 -73 21 l-68 16 95 14 c70 10 97
18 107 32 8 11 36 23 71 30 31 7 111 37 177 68 l120 55 70 89 c40 50 71 100
73 116 12 109 116 652 139 727 3 12 -19 -3 -58 -40 -67 -63 -192 -165 -203
-165 -9 0 223 296 294 376 21 22 40 56 44 75 10 52 130 378 140 381 9 3 90
-231 140 -406 13 -44 47 -155 74 -246 28 -91 68 -231 91 -313 l40 -147 94
-113 c52 -61 109 -128 126 -147 16 -19 30 -38 31 -42 0 -11 -136 78 -194 125
-35 29 -47 35 -43 21 3 -10 17 -66 31 -123 14 -58 29 -108 33 -112 5 -4 50
-41 101 -82 l94 -75 106 -7 c105 -7 108 -8 138 -41 27 -29 38 -34 80 -35 27 0
72 -4 99 -7 l50 -7 -77 -19 c-43 -10 -78 -22 -78 -27 0 -9 97 -230 135 -311
15 -31 26 -39 67 -49 51 -14 64 -29 23 -29 -38 0 -30 -18 12 -26 69 -13 353
49 353 78 0 14 -146 380 -172 431 -16 33 -21 36 -39 26 -40 -21 -29 -2 19 32
26 18 94 74 152 123 58 49 106 90 107 91 4 2 63 401 63 423 0 26 -338 402
-361 402 -4 0 -3 -17 3 -38 13 -44 4 -192 -14 -244 -13 -39 -88 -148 -100
-148 -4 0 -4 15 0 33 4 17 7 178 7 357 l0 325 -43 105 c-40 100 -209 447 -196
405 15 -54 16 -234 0 -325 -29 -168 -27 -168 -53 -15 -24 138 -77 386 -147
680 -20 83 -36 162 -36 177 0 15 -6 47 -13 70 -8 24 -20 68 -27 98 -17 74 -65
194 -95 238 -30 44 -31 59 -5 67 31 10 24 25 -12 26 -18 1 -44 4 -58 8 -24 7
-24 7 8 20 38 16 41 27 7 35 -31 8 -32 30 -4 50 26 18 16 38 -16 30 -38 -9
-37 11 2 30 32 15 38 15 59 1 22 -14 27 -12 103 38 91 59 89 53 46 156 -26 62
-26 65 -9 78 24 17 33 16 41 -4 28 -78 121 -264 146 -293 18 -19 61 -72 95
-117 l63 -83 149 0 c128 0 157 3 206 21 35 13 58 28 61 40 5 16 9 16 58 -12
l54 -30 86 70 c47 39 96 76 108 83 21 11 21 12 -13 21 l-35 10 42 11 c34 9 68
36 180 146 120 118 138 139 140 170 1 19 5 60 9 92 l6 56 -55 69 c-60 75 -121
133 -140 133 -14 0 -37 -19 -37 -31 0 -3 14 -23 30 -44 49 -61 36 -73 -24 -21
-30 25 -58 46 -63 46 -4 0 -21 -11 -37 -24 l-30 -23 28 -18 c27 -18 62 -72 52
-82 -3 -3 -34 11 -69 30 l-64 36 -21 -21 -21 -21 35 -42 c37 -45 48 -80 17
-53 -10 9 -33 23 -52 33 -33 17 -35 17 -48 -1 -9 -12 -12 -30 -8 -49 8 -38 8
-72 -1 -168 l-7 -78 -19 32 c-11 18 -20 40 -21 50 -1 19 -17 27 -17 9 0 -5 -5
-10 -10 -10 -6 0 -1 18 10 40 46 90 -32 16 -85 -81 l-36 -64 3 50 3 50 -65 3
c-86 4 -129 -10 -196 -64 l-55 -45 42 82 42 82 -11 82 c-11 86 -29 131 -102
254 l-43 75 -26 -34 c-14 -19 -43 -53 -64 -75 l-37 -40 56 125 c31 69 78 179
105 245 l48 119 -87 31 c-48 16 -104 40 -126 53 -21 13 -40 22 -41 20 -1 -2
-24 -50 -50 -108 -26 -58 -49 -107 -51 -109 -2 -2 -1 26 1 63 3 36 7 95 10
131 3 54 2 65 -11 65 -9 0 -56 14 -106 30 -49 17 -90 30 -91 30 -4 0 -35 -63
-72 -144 -19 -44 -51 -99 -71 -122 -32 -40 -204 -177 -256 -205 -20 -11 -19
-8 6 22 15 19 66 73 112 122 l85 87 -28 11 c-40 16 -199 23 -260 11 -43 -7
-53 -7 -53 4 0 19 66 50 136 64 59 12 83 10 224 -17 22 -4 29 3 54 52 16 30
27 57 25 59 -2 2 -15 9 -29 16 -14 7 -43 28 -66 47 -23 18 -43 33 -46 33 -3 0
-8 -12 -11 -27 -9 -46 -45 -123 -58 -123 -11 0 -6 164 7 249 l6 35 -42 -38
c-50 -45 -187 -136 -206 -136 -30 0 -21 18 14 28 36 11 129 94 166 147 14 21
66 166 66 185 0 8 -7 9 -17 5 -33 -13 -128 -34 -156 -35 -25 0 -14 11 78 80
106 80 127 91 124 68 -11 -88 27 -63 83 54 25 51 48 107 53 123 8 32 10 30 20
-28 3 -21 10 -35 15 -32 14 9 17 -16 8 -79 -17 -125 -52 -185 -125 -219 -13
-6 -23 -14 -23 -19 0 -5 24 4 53 20 69 40 295 131 486 198 85 29 148 55 140
58 -46 14 -89 19 -219 25 l-145 6 80 58 c84 60 310 177 383 198 23 7 42 15 42
19 0 24 -308 40 -395 20 -22 -5 -41 -7 -43 -6 -5 5 105 65 178 98 l65 29 -160
-5 c-100 -3 -192 -12 -245 -24 l-85 -18 0 -37 c0 -20 -1 -37 -2 -37 0 0 -13
20 -27 45 -68 115 -181 203 -308 240 l-57 16 -7 67 c-13 130 -63 248 -142 337
-110 123 -266 224 -410 264 -40 11 -116 23 -169 27 l-97 7 76 -85z m453 -1015
c-6 -52 2 -123 20 -193 l7 -25 -22 24 c-26 30 -36 22 -62 -51 l-19 -53 6 85
c3 47 11 103 16 125 12 47 49 145 56 145 2 0 1 -26 -2 -57z m218 -35 c-48 -50
-109 -147 -118 -189 -7 -32 -25 -40 -25 -10 0 62 60 167 122 211 59 43 69 37
21 -12z m282 -96 c-5 -22 -77 -96 -128 -131 l-22 -15 20 29 c50 77 97 159 113
197 l17 43 3 -49 c2 -27 1 -60 -3 -74z m-243 -504 c-17 -8 -26 -8 -34 0 -9 9
-4 12 23 11 32 0 33 -1 11 -11z"/>
<path d="M2020 6003 c0 -5 10 -41 22 -81 16 -55 28 -78 50 -94 16 -11 31 -18
34 -15 3 3 -2 26 -10 51 -9 26 -16 52 -16 57 0 15 -59 89 -71 89 -5 0 -9 -3
-9 -7z"/>
<path d="M2825 5968 c-16 -17 -32 -50 -36 -72 -4 -23 -11 -49 -14 -58 -5 -12
-2 -18 7 -18 29 0 70 67 87 139 11 51 -4 54 -44 9z"/>
<path d="M2102 5784 c10 -10 20 -15 24 -12 3 4 -5 12 -18 18 -22 12 -22 12 -6
-6z"/>
<path d="M2000 5554 c-46 -19 -55 -27 -52 -46 5 -41 17 -38 71 17 30 30 50 54
45 54 -5 -1 -34 -12 -64 -25z"/>
<path d="M2880 5523 c25 -26 45 -49 46 -50 0 -2 6 8 12 22 11 24 9 26 -38 50
-27 14 -53 25 -57 25 -4 0 13 -21 37 -47z"/>
<path d="M895 1258 c-67 -179 -125 -352 -116 -343 13 13 156 348 166 388 5 20
3 27 -8 27 -9 0 -25 -27 -42 -72z"/>
<path d="M3930 1294 c-19 -14 -46 -30 -59 -35 -19 -8 -22 -14 -16 -37 8 -33
155 -399 171 -426 11 -18 15 -16 67 25 31 24 56 51 56 60 1 23 -93 295 -128
374 -16 36 -36 65 -43 65 -7 -1 -29 -12 -48 -26z"/>
<path d="M735 820 c-4 -7 5 -25 21 -41 l28 -29 -26 -53 c-14 -28 -69 -121
-122 -205 -102 -162 -172 -292 -157 -292 4 0 26 6 47 14 22 7 59 17 84 21 25
4 77 20 115 37 39 17 90 38 115 48 51 21 226 60 265 60 14 0 48 11 75 25 l49
25 31 101 c17 55 30 102 28 103 -2 2 -37 8 -78 15 -145 25 -338 96 -437 161
-22 14 -33 17 -38 10z"/>
<path d="M4107 780 c-70 -47 -197 -90 -362 -121 -66 -13 -121 -23 -122 -24 -7
-3 72 -233 85 -247 8 -10 29 -18 46 -18 17 0 50 -5 74 -10 23 -6 83 -14 132
-19 79 -9 97 -15 162 -53 91 -54 348 -176 348 -165 0 2 -20 54 -44 117 -81
213 -166 394 -222 472 -27 38 -32 54 -28 78 4 16 3 30 -2 30 -5 0 -35 -18 -67
-40z"/>
</g>
</svg>
