<?xml version="1.0" standalone="no"?>
<!DOCTYPE svg PUBLIC "-//W3C//DTD SVG 20010904//EN"
 "http://www.w3.org/TR/2001/REC-SVG-20010904/DTD/svg10.dtd">
<svg version="1.0" xmlns="http://www.w3.org/2000/svg"
 width="512.000000pt" height="512.000000pt" viewBox="0 0 512.000000 512.000000"
 preserveAspectRatio="xMidYMid meet">

<g transform="translate(0.000000,512.000000) scale(0.100000,-0.100000)"
fill="#000000" stroke="none">
<path d="M2737 5069 c-10 -72 -54 -116 -127 -126 -51 -7 -51 -19 0 -26 73 -10
117 -54 127 -126 6 -43 23 -47 23 -6 0 46 32 94 75 115 23 11 51 20 63 20 12
0 22 5 22 10 0 6 -10 10 -22 10 -12 0 -40 9 -63 20 -43 21 -75 69 -75 115 0
41 -17 37 -23 -6z"/>
<path d="M2447 4635 c-13 -93 -65 -142 -172 -161 l-40 -7 48 -8 c102 -16 150
-64 166 -166 l7 -48 12 53 c24 106 55 138 151 158 52 11 54 12 26 18 -84 19
-105 29 -134 61 -17 19 -33 51 -36 72 -12 73 -21 82 -28 28z"/>
<path d="M1238 4490 c-3 -8 -11 -34 -17 -57 -15 -56 -58 -91 -124 -99 l-51 -7
64 -18 c74 -20 106 -49 115 -107 11 -63 18 -69 26 -25 16 87 51 121 144 139
l40 8 -43 7 c-87 16 -126 52 -141 129 -4 25 -10 38 -13 30z"/>
<path d="M3870 4415 c-1 -43 -34 -111 -62 -126 -12 -7 -45 -18 -73 -25 -27 -7
-41 -13 -30 -13 87 -4 150 -53 160 -124 8 -55 20 -54 29 2 11 70 74 119 157
122 13 0 0 7 -29 14 -72 17 -104 43 -121 96 -25 80 -30 88 -31 54z"/>
<path d="M3001 4357 c-2 -71 -58 -126 -128 -128 -22 0 -18 -4 26 -19 67 -23
81 -36 96 -97 l13 -48 12 47 c15 57 40 81 105 101 40 12 44 15 22 16 -42 2
-94 27 -107 51 -7 12 -18 41 -25 64 -12 37 -13 38 -14 13z"/>
<path d="M1966 4260 c-9 -62 -33 -88 -97 -110 -46 -16 -49 -19 -24 -19 64 -2
123 -65 126 -133 0 -13 7 -2 14 26 17 62 41 85 101 101 l47 12 -44 11 c-56 14
-87 47 -103 108 l-13 49 -7 -45z"/>
<path d="M1468 3918 l-126 -213 99 -3 99 -3 0 -344 0 -345 60 0 60 0 0 345 0
345 95 0 c52 0 95 3 95 6 0 6 -250 424 -253 424 -2 0 -59 -96 -129 -212z"/>
<path d="M3396 3922 c-69 -116 -126 -213 -126 -216 0 -3 43 -6 95 -6 l95 0 0
-345 0 -345 60 0 60 0 0 345 0 344 99 3 99 3 -125 210 c-68 115 -126 211 -128
213 -2 2 -60 -91 -129 -206z"/>
<path d="M2453 3996 c-104 -34 -195 -114 -241 -214 -23 -49 -27 -70 -27 -152
0 -87 3 -101 32 -161 39 -80 111 -150 191 -187 49 -23 70 -27 152 -27 87 0
101 3 161 32 80 39 150 111 187 191 23 49 27 70 27 152 0 82 -4 103 -27 152
-37 79 -107 152 -185 190 -54 26 -79 32 -146 35 -51 2 -98 -2 -124 -11z"/>
<path d="M1011 3421 c-3 -83 -52 -146 -122 -157 -53 -9 -57 -20 -8 -27 22 -3
51 -13 65 -22 30 -19 63 -87 65 -130 0 -24 3 -20 13 20 22 91 49 118 133 133
46 9 47 9 18 16 -102 25 -129 50 -150 138 -7 29 -14 42 -14 29z"/>
<path d="M4070 3358 c-1 -45 -31 -110 -65 -136 -15 -12 -55 -27 -88 -34 l-62
-12 45 -8 c106 -18 154 -62 166 -151 7 -47 24 -56 24 -12 0 41 31 104 61 126
16 11 57 26 91 33 l62 13 -64 12 c-87 17 -136 64 -146 139 -8 60 -24 80 -24
30z"/>
<path d="M2155 3140 c-11 -4 -32 -21 -46 -36 -31 -35 -687 -1291 -695 -1332
-26 -127 146 -212 229 -113 13 16 120 213 238 440 l214 411 3 -268 c2 -257 -1
-307 -68 -1129 -38 -473 -70 -880 -70 -906 0 -58 11 -86 52 -132 96 -110 260
-95 334 30 25 43 26 60 89 827 36 431 65 786 65 791 0 4 27 7 60 7 33 0 60 -3
60 -7 0 -5 29 -360 64 -791 63 -768 65 -784 90 -827 86 -146 288 -137 367 17
11 21 19 58 19 84 0 26 -32 434 -70 907 -67 822 -70 871 -68 1128 l3 269 214
-411 c118 -227 225 -424 238 -440 83 -99 255 -14 229 113 -6 28 -636 1248
-680 1315 -40 63 -44 63 -468 62 -210 0 -392 -4 -403 -9z"/>
<path d="M1540 2920 l0 -40 60 0 60 0 0 40 0 40 -60 0 -60 0 0 -40z"/>
<path d="M3460 2920 l0 -40 60 0 60 0 0 40 0 40 -60 0 -60 0 0 -40z"/>
<path d="M1540 2740 l0 -60 60 0 61 0 -3 58 -3 57 -57 3 -58 3 0 -61z"/>
<path d="M3467 2793 c-4 -3 -7 -30 -7 -60 l0 -53 60 0 60 0 0 60 0 60 -53 0
c-30 0 -57 -3 -60 -7z"/>
<path d="M943 2522 l-122 -207 94 -3 95 -3 0 -344 0 -345 60 0 60 0 0 345 0
345 99 0 100 0 -123 207 c-68 114 -127 208 -132 210 -5 1 -64 -91 -131 -205z"/>
<path d="M3917 2523 l-123 -208 98 -3 98 -3 0 -344 0 -345 60 0 60 0 0 345 0
344 95 3 95 3 -123 207 c-67 114 -125 207 -129 207 -4 1 -63 -92 -131 -206z"/>
<path d="M1010 1525 l0 -35 60 0 60 0 0 35 0 35 -60 0 -60 0 0 -35z"/>
<path d="M3990 1525 l0 -35 60 0 60 0 0 35 0 35 -60 0 -60 0 0 -35z"/>
<path d="M1606 1375 c-17 -84 -48 -117 -133 -139 l-48 -13 48 -7 c70 -11 112
-52 128 -123 l13 -56 11 49 c21 90 39 108 129 129 l49 11 -56 13 c-82 18 -110
52 -129 156 -3 13 -7 6 -12 -20z"/>
<path d="M1010 1345 l0 -55 60 0 60 0 0 55 0 55 -60 0 -60 0 0 -55z"/>
<path d="M3990 1345 l0 -55 60 0 60 0 0 55 0 55 -60 0 -60 0 0 -55z"/>
<path d="M3605 1305 c-16 -68 -27 -93 -48 -112 -25 -23 -77 -43 -116 -44 -16
0 -5 -6 27 -14 72 -17 104 -43 121 -96 25 -80 30 -88 31 -54 1 43 34 111 62
126 12 7 46 18 73 25 28 7 41 13 30 13 -40 2 -96 22 -121 45 -19 16 -30 40
-39 82 -12 54 -13 57 -20 29z"/>
<path d="M1006 923 c-11 -83 -44 -113 -151 -138 -28 -7 -26 -8 27 -19 33 -7
68 -22 81 -35 24 -22 46 -79 48 -122 0 -14 7 -1 15 30 8 29 22 63 30 76 17 26
80 55 122 55 35 1 12 15 -40 24 -58 10 -87 42 -107 116 l-18 64 -7 -51z"/>
<path d="M4060 895 c0 -35 -23 -86 -49 -109 -12 -11 -47 -25 -79 -31 l-57 -12
55 -12 c82 -18 113 -50 129 -132 8 -46 15 -40 26 23 8 48 54 95 103 104 52 9
75 23 39 24 -71 0 -132 53 -143 122 -8 45 -24 61 -24 23z"/>
<path d="M3425 765 c-17 -87 -59 -128 -145 -141 l-45 -7 52 -12 c88 -20 113
-46 141 -145 l10 -35 1 30 c2 44 36 111 63 126 12 7 46 18 73 24 l50 12 -44 7
c-87 14 -123 49 -140 139 l-8 42 -8 -40z"/>
<path d="M1560 655 c-1 -43 -34 -111 -62 -126 -12 -7 -45 -18 -73 -25 -27 -7
-41 -13 -30 -13 90 -4 151 -55 161 -133 7 -54 17 -49 28 14 12 68 75 116 157
119 13 0 0 7 -29 14 -72 17 -104 43 -121 96 -25 80 -30 88 -31 54z"/>
</g>
</svg>
