<svg version="1.2" xmlns="http://www.w3.org/2000/svg" viewBox="0 0 512 192" width="512" height="192">
	<title>Proyecto nuevo</title>
	<style>
		.s0 { fill: #ffa500 } 
		.s1 { fill: #ffffff } 
	</style>
	<path id="fitPowerUp" class="s0" aria-label="fitPowerUp"  d="m45.4 97.2l-17.7 1.5 1.6 6.4 9.5-4.1v16.3l-9.5 3.7 1.7 25.6-25.5 1.5 1.5-50.5-4.3-2.6 5.8-29.8 40.1-7.9zm6.9 50.7l-3.1-84.1 27.1-6.1-4.8 90.2zm80.1-88.1l-1.7 28.4-16.5 1.7v58.1h-22.7l4.4-57.8-17.3 3.4 1.4-24.3z"/>
	<path id="fitPowerUp" class="s1" aria-label="fitPowerUp"  d="m157.9 119.7l3.6 27.9h-19.1l-3.4-55-4.8-1.3 1.6-35.3q10.6-6.1 20.3-7 9.8-1 16.9 2.2 7.2 3.1 11 9.8 4 6.6 2.9 15.9-1.2 9-8 20.1-6.8 11-21 22.7zm-1.7-47.2v18.3q2-0.9 3-3.4 1-2.7 1-5.6 0-3-1-5.5-1-2.7-3-3.8zm48.3 4.5q5.7-0.7 10.6 0.9 5 1.4 8.7 4.8 3.7 3.2 5.8 8.2 2.2 4.8 2.2 10.8 0 6.1-2.2 11.8-2.1 5.5-5.8 9.8-3.7 4.3-8.7 6.8-4.9 2.6-10.6 2.7-5.6 0.1-10.4-1.8-4.8-2.2-8.5-5.9-3.5-3.7-5.7-8.6-2-5-2-10.5 0-5.4 2-10.4 2.2-5 5.7-8.8 3.7-4 8.5-6.5 4.8-2.6 10.4-3.3zm7.5 38.1l-1.8-9.7 5.5-6.2-7.5 0.5-3.7-7.2-2 7.8-9.1 0.7 7.4 5.1-3.8 10 7.5-6.3zm18.2 32.9l-5.4-79.6 25.2-2.3-1.4 34.2 10.2-24.7 9.3 23v-35.3l28.2-6-6.8 90.7-18.2-1.5-12.5-31.5-13.2 33zm109.1-47.5l-17.5-1.6v9.4l9.4-2.3-1.6 9.8-7.8 3.7-1.5 6.3 15.7-5.4-1.7 21-36 6.5 2.8-50.3-4.3-2.7 5.9-28.1 39.9-9.4zm51.5 34.8l-15.9 13.1-13.5-24.7 1.4 23h-17.1l1.2-47.9-2.8-1.2v-28.1q8.1-4.5 15.3-5.3 7.4-1 13.1 1.1 5.7 2 9.2 6.6 3.6 4.5 4.1 10.9 0.6 6.4-2.4 14.3-3 8-10.2 16.7zm-29.4-48.6v13.8q1.6-0.2 2.6-1.9 1.1-1.8 1.2-4.1 0.2-2.4-0.7-4.7-0.8-2.3-3.1-3.1zm69-35.2q6-1.7 11.7-3.3 4.8-1.4 10-3 5.3-1.5 9-3 0.7 5.9 1.6 13.5 0.9 7.6 1.5 16.1 0.7 8.5 0.9 17.4 0.1 9-0.7 17.5-0.9 8.5-3 16.1-2 7.3-5.8 13-3.9 5.7-9.6 9-5.6 3.2-13.7 3.2-9.7 0-16.6-4.4-6.9-4.5-11.4-12-4.4-7.6-6.8-17.2-2.3-9.7-3-20.2-0.7-10.5 0-20.9 0.7-10.5 2.3-19.4l23.3 3q-0.5 2-1.5 7.6-0.8 5.6-1.5 13-0.7 7.2-0.9 15.3 0 7.9 1.3 14.6 1.3 6.6 4.3 10.8 3.1 4.1 8.6 3.8 3.7-0.1 5.7-4.4 2-4.2 2.6-10.7 0.7-6.6 0.1-14.5-0.4-8.1-1.7-15.8-1.3-7.8-3.1-14.5-1.7-6.6-3.6-10.6zm55 73l3 23.1h-15.9l-2.9-46-4.1-1.1 1.4-29.4q8.8-5 16.8-5.6 8.1-0.5 14 2.3 6 2.7 9.1 8.4 3.1 5.5 2.3 13.2-0.9 7.5-6.5 16.6-5.6 8.9-17.2 18.5zm-1.4-39.4v15.2q1.7-0.7 2.4-2.8 0.8-2.1 0.8-4.6 0-2.4-0.8-4.6-0.7-2.3-2.4-3.2z"/>
</svg>